<svg width="16" height="16" viewBox="0 0 16 16" fill="none" xmlns="http://www.w3.org/2000/svg">
<path d="M10 12H6V15H10V12Z" fill="white"/>
<path d="M10 7H6V10H10V7Z" fill="white"/>
<path d="M8 1H1V4H8V1Z" fill="white"/>
<path opacity="0.5" fill-rule="evenodd" clip-rule="evenodd" d="M5 9V8H2V5H1V8V9V13V14H2H5V13H2V9H5Z" fill="white"/>
<path fill-rule="evenodd" clip-rule="evenodd" d="M15 0.5L13.0876 2.41856L12.2907 1.62172L11.5 2.41856L13.0876 4L15.7907 1.29685L15 0.5Z" fill="white"/>
<path fill-rule="evenodd" clip-rule="evenodd" d="M15 6.5L13.0867 8.41334L12.2933 7.62L11.5 8.41334L13.0867 10L15.7933 7.29333L15 6.5Z" fill="white"/>
<path fill-rule="evenodd" clip-rule="evenodd" d="M15 11.5L13.0867 13.4133L12.2933 12.62L11.5 13.4133L13.0867 15L15.7933 12.2933L15 11.5Z" fill="white"/>
</svg>
