<svg width="512" height="512" viewBox="0 0 512 512" fill="none" xmlns="http://www.w3.org/2000/svg">
<path fill-rule="evenodd" clip-rule="evenodd" d="M99 427C132.137 427 159 400.137 159 367C159 333.863 132.137 307 99 307C65.8629 307 39 333.863 39 367C39 400.137 65.8629 427 99 427ZM99 397C115.569 397 129 383.569 129 367C129 350.431 115.569 337 99 337C82.4315 337 69 350.431 69 367C69 383.569 82.4315 397 99 397Z" fill="white"/>
<path d="M475 367C475 400.137 448.137 427 415 427C381.863 427 355 400.137 355 367C355 333.863 381.863 307 415 307C448.137 307 475 333.863 475 367Z" fill="white"/>
<path d="M316 90C316 123.137 289.137 150 256 150C222.863 150 196 123.137 196 90C196 56.8629 222.863 30 256 30C289.137 30 316 56.8629 316 90Z" fill="white"/>
<path fill-rule="evenodd" clip-rule="evenodd" d="M338.394 126.266C342.49 116.975 345.06 106.86 345.787 96.2386C411.154 129.135 456 196.83 456 275C456 278.924 455.887 282.821 455.664 286.689C446.553 282.066 436.549 278.949 425.98 277.663C425.993 276.777 426 275.889 426 275C426 211.006 390.641 155.271 338.394 126.266ZM166.213 96.2386C166.94 106.86 169.51 116.975 173.606 126.266C121.359 155.271 86 211.006 86 275C86 275.978 86.0083 276.954 86.0247 277.928C75.4413 279.457 65.4535 282.826 56.3969 287.702C56.1336 283.502 56 279.267 56 275C56 196.83 100.846 129.135 166.213 96.2386ZM256 475C296.491 475 334.172 462.967 365.661 442.283C356.95 436.562 349.291 429.37 343.038 421.059C317.578 436.264 287.809 445 256 445C224.763 445 195.495 436.575 170.342 421.874C163.963 430.155 156.174 437.295 147.335 442.933C178.622 463.219 215.935 475 256 475Z" fill="white"/>
<path d="M331 225L231 325L181 275" stroke="#9A9A9A" stroke-width="50" stroke-linecap="round" stroke-linejoin="round"/>
</svg>
