<svg width="16" height="16" viewBox="0 0 16 16" fill="none" xmlns="http://www.w3.org/2000/svg">
    <path d="
M9.24889 5.39483
L9.38955 5.65781
L3.9634 13.1557
L4.41997 9.57919
L4.45737 9.2862
L4.25474 9.07129
L1.73586 6.39975
L5.31754 5.7139
L5.61045 5.65781
L5.75112 5.39483
L7.5 2.12518
L9.24889 5.39483Z" stroke="white" stroke-width="0" fill="white"/>
    <path d="
M9.24889 5.39483
L9.38955 5.65781
L9.68246 5.7139
L13.2641 6.39975
L10.7453 9.07129
L10.5426 9.2862
L10.58 9.57919
L11.0366 13.1557
L7.76358 11.6333
L7.5 11.5108
L7.23642 11.6333
L3.9634 13.1557
L4.41997 9.57919
L4.45737 9.2862
L4.25474 9.07129
L1.73586 6.39975
L5.31754 5.7139
L5.61045 5.65781
L5.75112 5.39483
L7.5 2.12518
L9.24889 5.39483Z" stroke="white" stroke-width="1"/>
</svg>
